<svg width="35" height="36" viewBox="0 0 35 36" fill="none" xmlns="http://www.w3.org/2000/svg">
<path d="M32.4759 18.9727C32.8308 15.8564 32.2075 12.7069 30.6923 9.96075C29.177 7.2146 26.845 5.00787 24.0194 3.64647C21.1938 2.28507 18.0147 1.83645 14.9228 2.36279C11.8308 2.88913 8.97918 4.36436 6.76321 6.58398C4.54723 8.8036 3.07668 11.6576 2.55542 14.7505C2.03416 17.8433 2.488 21.0217 3.85404 23.845C5.22008 26.6683 7.43064 28.9967 10.1793 30.5075C12.9279 32.0182 16.0784 32.6363 19.1942 32.2763M17.4591 8.86654V17.2631L20.8177 20.6218M25.8557 25.6597V34.0563M32.573 25.6597V34.0563" stroke="white" stroke-width="3.35864" stroke-linecap="round" stroke-linejoin="round"/>
</svg>
