<svg width="37" height="36" viewBox="0 0 37 36" fill="none" xmlns="http://www.w3.org/2000/svg">
<path d="M9.63739 14.5663H14.8949V9.30877L8.76114 3.17504C10.7233 2.23793 12.9277 1.93218 15.0708 2.29988C17.2139 2.66758 19.1904 3.69065 20.7279 5.22821C22.2655 6.76577 23.2886 8.7422 23.6563 10.8853C24.024 13.0284 23.7182 15.2329 22.7811 17.195L33.2961 27.71C33.9933 28.4072 34.3849 29.3528 34.3849 30.3387C34.3849 31.3247 33.9933 32.2703 33.2961 32.9675C32.5989 33.6647 31.6533 34.0563 30.6673 34.0563C29.6814 34.0563 28.7358 33.6647 28.0386 32.9675L17.5236 22.4525C15.5615 23.3896 13.3571 23.6954 11.2139 23.3277C9.07081 22.96 7.09439 21.9369 5.55683 20.3993C4.01926 18.8618 2.99619 16.8853 2.62849 14.7422C2.26079 12.5991 2.56654 10.3947 3.50365 8.43252L9.63739 14.5663Z" stroke="white" stroke-width="3.50499" stroke-linecap="round" stroke-linejoin="round"/>
</svg>
