<svg width="34" height="36" viewBox="0 0 34 36" fill="none" xmlns="http://www.w3.org/2000/svg">
<path d="M12.6639 32.377H5.10677C4.21598 32.377 3.36168 32.0231 2.73179 31.3932C2.10191 30.7633 1.74805 29.909 1.74805 29.0182V8.86589C1.74805 7.9751 2.10191 7.12079 2.73179 6.49091C3.36168 5.86103 4.21598 5.50716 5.10677 5.50716H25.2591C26.1499 5.50716 27.0042 5.86103 27.6341 6.49091C28.264 7.12079 28.6179 7.9751 28.6179 8.86589V13.904M21.9004 2.14844V8.86589M8.4655 2.14844V8.86589M1.74805 15.5833H18.5417M25.2591 24.8198V27.3389L26.0988 28.1786M18.5417 27.3389C18.5417 29.1205 19.2494 30.8291 20.5092 32.0888C21.7689 33.3486 23.4776 34.0563 25.2591 34.0563C27.0407 34.0563 28.7493 33.3486 30.0091 32.0888C31.2689 30.8291 31.9766 29.1205 31.9766 27.3389C31.9766 25.5573 31.2689 23.8487 30.0091 22.5889C28.7493 21.3292 27.0407 20.6214 25.2591 20.6214C23.4776 20.6214 21.7689 21.3292 20.5092 22.5889C19.2494 23.8487 18.5417 25.5573 18.5417 27.3389Z" stroke="white" stroke-width="3.35873" stroke-linecap="round" stroke-linejoin="round"/>
</svg>
